<svg xmlns="http://www.w3.org/2000/svg" viewBox="0 0 960 440" width="960" height="440">
  <defs>
    <linearGradient id="bg" x1="0%" y1="0%" x2="100%" y2="100%">
      <stop offset="0%" stop-color="#0f1019"/>
      <stop offset="100%" stop-color="#1a1a2e"/>
    </linearGradient>
    <linearGradient id="gold" x1="0%" y1="0%" x2="100%" y2="100%">
      <stop offset="0%" stop-color="#f59e0b"/>
      <stop offset="100%" stop-color="#d97706"/>
    </linearGradient>
    <linearGradient id="blue" x1="0%" y1="0%" x2="100%" y2="100%">
      <stop offset="0%" stop-color="#3b82f6"/>
      <stop offset="100%" stop-color="#2563eb"/>
    </linearGradient>
    <linearGradient id="purple" x1="0%" y1="0%" x2="100%" y2="100%">
      <stop offset="0%" stop-color="#8b5cf6"/>
      <stop offset="100%" stop-color="#7c3aed"/>
    </linearGradient>
    <linearGradient id="green" x1="0%" y1="0%" x2="100%" y2="100%">
      <stop offset="0%" stop-color="#10b981"/>
      <stop offset="100%" stop-color="#059669"/>
    </linearGradient>
    <linearGradient id="red" x1="0%" y1="0%" x2="100%" y2="100%">
      <stop offset="0%" stop-color="#ef4444"/>
      <stop offset="100%" stop-color="#dc2626"/>
    </linearGradient>
    <linearGradient id="cyan" x1="0%" y1="0%" x2="100%" y2="100%">
      <stop offset="0%" stop-color="#06b6d4"/>
      <stop offset="100%" stop-color="#0891b2"/>
    </linearGradient>
    <marker id="arrowGold" markerWidth="8" markerHeight="6" refX="8" refY="3" orient="auto">
      <polygon points="0 0, 8 3, 0 6" fill="#f59e0b" opacity="0.7"/>
    </marker>
  </defs>

  <rect width="960" height="440" rx="16" fill="url(#bg)"/>

  <!-- Grid -->
  <g opacity="0.03" stroke="#f59e0b">
    <line x1="0" y1="100" x2="960" y2="100" stroke-width="0.5"/>
    <line x1="0" y1="200" x2="960" y2="200" stroke-width="0.5"/>
    <line x1="0" y1="300" x2="960" y2="300" stroke-width="0.5"/>
    <line x1="240" y1="0" x2="240" y2="440" stroke-width="0.5"/>
    <line x1="480" y1="0" x2="480" y2="440" stroke-width="0.5"/>
    <line x1="720" y1="0" x2="720" y2="440" stroke-width="0.5"/>
  </g>

  <!-- Title -->
  <text x="480" y="42" text-anchor="middle" fill="#3b82f6" font-family="Arial,Helvetica,sans-serif" font-size="18" font-weight="bold" letter-spacing="2">MULTI-TAB PARALLEL SESSIONS</text>
  <text x="480" y="60" text-anchor="middle" fill="#94a3b8" font-family="Arial,Helvetica,sans-serif" font-size="11">SessionRouter + SessionUnit + LifecycleManager + SessionRegistry</text>

  <!-- ============ SESSION ROUTER (top) ============ -->
  <rect x="300" y="78" width="360" height="50" rx="10" fill="#1e1e36" stroke="#f59e0b" stroke-width="1.5" opacity="0.95"/>
  <rect x="300" y="78" width="360" height="50" rx="10" fill="url(#gold)" opacity="0.06"/>
  <text x="480" y="100" text-anchor="middle" fill="#fbbf24" font-family="Arial,Helvetica,sans-serif" font-size="12" font-weight="bold">SessionRouter</text>
  <text x="480" y="118" text-anchor="middle" fill="#94a3b8" font-family="Arial,Helvetica,sans-serif" font-size="9">Slot acquisition | IDLE eviction | Queue timeout (60s) | MAX_CONCURRENT=2</text>

  <!-- ============ SESSION UNITS (3 tabs + channel) ============ -->
  <!-- Tab 1: STREAMING -->
  <rect x="40" y="160" width="200" height="180" rx="10" fill="#1e1e36" stroke="#10b981" stroke-width="1.5" opacity="0.95"/>
  <rect x="40" y="160" width="200" height="180" rx="10" fill="url(#green)" opacity="0.04"/>
  <circle cx="60" cy="180" r="5" fill="#10b981"/>
  <text x="72" y="184" fill="#6ee7b7" font-family="Arial,Helvetica,sans-serif" font-size="11" font-weight="bold">Tab 1 — STREAMING</text>

  <!-- State machine -->
  <g transform="translate(55, 200)">
    <rect x="0" y="0" width="46" height="18" rx="4" fill="#334155" stroke="#64748b" stroke-width="0.5"/>
    <text x="23" y="13" text-anchor="middle" fill="#94a3b8" font-family="Arial,Helvetica,sans-serif" font-size="7">COLD</text>
    <text x="52" y="13" fill="#64748b" font-family="Arial,Helvetica,sans-serif" font-size="8">-></text>
    <rect x="60" y="0" width="60" height="18" rx="4" fill="#10b981" fill-opacity="0.2" stroke="#10b981" stroke-width="0.8"/>
    <text x="90" y="13" text-anchor="middle" fill="#6ee7b7" font-family="Arial,Helvetica,sans-serif" font-size="7" font-weight="bold">STREAMING</text>
    <text x="126" y="13" fill="#64748b" font-family="Arial,Helvetica,sans-serif" font-size="8">-></text>
    <rect x="134" y="0" width="40" height="18" rx="4" fill="#334155" stroke="#64748b" stroke-width="0.5"/>
    <text x="154" y="13" text-anchor="middle" fill="#94a3b8" font-family="Arial,Helvetica,sans-serif" font-size="7">IDLE</text>
  </g>

  <text x="140" y="238" text-anchor="middle" fill="#94a3b8" font-family="Arial,Helvetica,sans-serif" font-size="9">Own subprocess + state machine</text>
  <text x="140" y="254" text-anchor="middle" fill="#94a3b8" font-family="Arial,Helvetica,sans-serif" font-size="9">SSE streaming to frontend</text>
  <text x="140" y="270" text-anchor="middle" fill="#94a3b8" font-family="Arial,Helvetica,sans-serif" font-size="9">3x retry with --resume</text>
  <text x="140" y="290" text-anchor="middle" fill="#64748b" font-family="Arial,Helvetica,sans-serif" font-size="8">Protected: never evicted</text>

  <!-- Arrow from router to Tab 1 -->
  <path d="M 380,128 L 140,160" stroke="#f59e0b" stroke-width="1" opacity="0.3"/>

  <!-- Tab 2: IDLE -->
  <rect x="260" y="160" width="200" height="180" rx="10" fill="#1e1e36" stroke="#f59e0b" stroke-width="1.2" opacity="0.95"/>
  <rect x="260" y="160" width="200" height="180" rx="10" fill="url(#gold)" opacity="0.04"/>
  <circle cx="280" cy="180" r="5" fill="#f59e0b"/>
  <text x="292" y="184" fill="#fbbf24" font-family="Arial,Helvetica,sans-serif" font-size="11" font-weight="bold">Tab 2 — IDLE</text>

  <g transform="translate(275, 200)">
    <rect x="0" y="0" width="46" height="18" rx="4" fill="#334155" stroke="#64748b" stroke-width="0.5"/>
    <text x="23" y="13" text-anchor="middle" fill="#94a3b8" font-family="Arial,Helvetica,sans-serif" font-size="7">COLD</text>
    <text x="52" y="13" fill="#64748b" font-family="Arial,Helvetica,sans-serif" font-size="8">-></text>
    <rect x="60" y="0" width="60" height="18" rx="4" fill="#334155" stroke="#64748b" stroke-width="0.5"/>
    <text x="90" y="13" text-anchor="middle" fill="#94a3b8" font-family="Arial,Helvetica,sans-serif" font-size="7">STREAMING</text>
    <text x="126" y="13" fill="#64748b" font-family="Arial,Helvetica,sans-serif" font-size="8">-></text>
    <rect x="134" y="0" width="40" height="18" rx="4" fill="#f59e0b" fill-opacity="0.2" stroke="#f59e0b" stroke-width="0.8"/>
    <text x="154" y="13" text-anchor="middle" fill="#fbbf24" font-family="Arial,Helvetica,sans-serif" font-size="7" font-weight="bold">IDLE</text>
  </g>

  <text x="360" y="238" text-anchor="middle" fill="#94a3b8" font-family="Arial,Helvetica,sans-serif" font-size="9">Subprocess alive but paused</text>
  <text x="360" y="254" text-anchor="middle" fill="#94a3b8" font-family="Arial,Helvetica,sans-serif" font-size="9">Ready for next message</text>
  <text x="360" y="270" text-anchor="middle" fill="#94a3b8" font-family="Arial,Helvetica,sans-serif" font-size="9">Evictable if slots needed</text>
  <text x="360" y="290" text-anchor="middle" fill="#64748b" font-family="Arial,Helvetica,sans-serif" font-size="8">12hr TTL before auto-cleanup</text>

  <path d="M 440,128 L 360,160" stroke="#f59e0b" stroke-width="1" opacity="0.3"/>

  <!-- Tab 3: Available (ghost) -->
  <rect x="480" y="160" width="200" height="180" rx="10" fill="#1e1e36" stroke="#334155" stroke-width="0.8" stroke-dasharray="5 3" opacity="0.6"/>
  <circle cx="500" cy="180" r="5" fill="#334155"/>
  <text x="512" y="184" fill="#64748b" font-family="Arial,Helvetica,sans-serif" font-size="11">Tab 3 — available</text>
  <text x="580" y="260" text-anchor="middle" fill="#475569" font-family="Arial,Helvetica,sans-serif" font-size="10">Spawns on demand</text>
  <text x="580" y="278" text-anchor="middle" fill="#475569" font-family="Arial,Helvetica,sans-serif" font-size="9">RAM-adaptive (1-4 tabs)</text>

  <path d="M 520,128 L 580,160" stroke="#334155" stroke-width="0.8" opacity="0.2" stroke-dasharray="4 3"/>

  <!-- Channel Slot: Dedicated -->
  <rect x="700" y="160" width="230" height="180" rx="10" fill="#1e1e36" stroke="#8b5cf6" stroke-width="1.5" opacity="0.95"/>
  <rect x="700" y="160" width="230" height="180" rx="10" fill="url(#purple)" opacity="0.04"/>
  <circle cx="720" cy="180" r="5" fill="#8b5cf6"/>
  <text x="732" y="184" fill="#a78bfa" font-family="Arial,Helvetica,sans-serif" font-size="11" font-weight="bold">Channel — DEDICATED</text>

  <text x="815" y="210" text-anchor="middle" fill="#94a3b8" font-family="Arial,Helvetica,sans-serif" font-size="9">1 reserved slot (always)</text>
  <text x="815" y="226" text-anchor="middle" fill="#94a3b8" font-family="Arial,Helvetica,sans-serif" font-size="9">Shared across Slack/Feishu</text>
  <text x="815" y="242" text-anchor="middle" fill="#94a3b8" font-family="Arial,Helvetica,sans-serif" font-size="9">Claude --resume for continuity</text>

  <!-- Channel adapters -->
  <rect x="715" y="260" width="60" height="22" rx="4" fill="#ec4899" fill-opacity="0.1" stroke="#ec4899" stroke-width="0.5"/>
  <text x="745" y="275" text-anchor="middle" fill="#f472b6" font-family="Arial,Helvetica,sans-serif" font-size="9">Slack</text>

  <rect x="785" y="260" width="60" height="22" rx="4" fill="#06b6d4" fill-opacity="0.1" stroke="#06b6d4" stroke-width="0.5"/>
  <text x="815" y="275" text-anchor="middle" fill="#22d3ee" font-family="Arial,Helvetica,sans-serif" font-size="9">Feishu</text>

  <rect x="855" y="260" width="60" height="22" rx="4" fill="#334155" fill-opacity="0.3" stroke="#334155" stroke-width="0.5" stroke-dasharray="3 2"/>
  <text x="885" y="275" text-anchor="middle" fill="#475569" font-family="Arial,Helvetica,sans-serif" font-size="8">Future</text>

  <text x="815" y="310" text-anchor="middle" fill="#64748b" font-family="Arial,Helvetica,sans-serif" font-size="8">Channels never starve chat</text>
  <text x="815" y="326" text-anchor="middle" fill="#64748b" font-family="Arial,Helvetica,sans-serif" font-size="8">Chat never starves channels</text>

  <path d="M 580,128 L 815,160" stroke="#8b5cf6" stroke-width="1" opacity="0.3"/>

  <!-- ============ LIFECYCLE MANAGER (bottom) ============ -->
  <rect x="40" y="365" width="430" height="50" rx="10" fill="#1e1e36" stroke="#06b6d4" stroke-width="1.2" opacity="0.95"/>
  <rect x="40" y="365" width="430" height="50" rx="10" fill="url(#cyan)" opacity="0.04"/>
  <text x="255" y="388" text-anchor="middle" fill="#67e8f9" font-family="Arial,Helvetica,sans-serif" font-size="11" font-weight="bold">LifecycleManager</text>
  <text x="255" y="404" text-anchor="middle" fill="#94a3b8" font-family="Arial,Helvetica,sans-serif" font-size="9">60s health loop | 12hr TTL kill | Dead->Cold cleanup | Startup orphan reaper</text>

  <!-- Session Registry -->
  <rect x="490" y="365" width="200" height="50" rx="10" fill="#1e1e36" stroke="#10b981" stroke-width="1.2" opacity="0.95"/>
  <rect x="490" y="365" width="200" height="50" rx="10" fill="url(#green)" opacity="0.04"/>
  <text x="590" y="388" text-anchor="middle" fill="#6ee7b7" font-family="Arial,Helvetica,sans-serif" font-size="11" font-weight="bold">SessionRegistry</text>
  <text x="590" y="404" text-anchor="middle" fill="#94a3b8" font-family="Arial,Helvetica,sans-serif" font-size="9">Module-level singletons | Wire at startup</text>

  <!-- 5-state machine legend -->
  <rect x="710" y="365" width="220" height="50" rx="10" fill="#1e1e36" stroke="#334155" stroke-width="0.8" opacity="0.95"/>
  <text x="820" y="382" text-anchor="middle" fill="#94a3b8" font-family="Arial,Helvetica,sans-serif" font-size="9" font-weight="bold">5-State Machine</text>
  <g transform="translate(720, 392)">
    <rect x="0" y="0" width="34" height="14" rx="3" fill="#334155"/>
    <text x="17" y="11" text-anchor="middle" fill="#94a3b8" font-family="Arial,Helvetica,sans-serif" font-size="7">COLD</text>
    <rect x="40" y="0" width="54" height="14" rx="3" fill="#10b981" fill-opacity="0.2"/>
    <text x="67" y="11" text-anchor="middle" fill="#6ee7b7" font-family="Arial,Helvetica,sans-serif" font-size="7">STREAM</text>
    <rect x="100" y="0" width="34" height="14" rx="3" fill="#f59e0b" fill-opacity="0.2"/>
    <text x="117" y="11" text-anchor="middle" fill="#fbbf24" font-family="Arial,Helvetica,sans-serif" font-size="7">IDLE</text>
    <rect x="140" y="0" width="34" height="14" rx="3" fill="#3b82f6" fill-opacity="0.2"/>
    <text x="157" y="11" text-anchor="middle" fill="#93c5fd" font-family="Arial,Helvetica,sans-serif" font-size="7">WAIT</text>
    <rect x="180" y="0" width="34" height="14" rx="3" fill="#ef4444" fill-opacity="0.2"/>
    <text x="197" y="11" text-anchor="middle" fill="#fca5a5" font-family="Arial,Helvetica,sans-serif" font-size="7">DEAD</text>
  </g>

  <!-- Tagline -->
  <text x="480" y="432" text-anchor="middle" fill="#475569" font-family="Arial,Helvetica,sans-serif" font-size="10" letter-spacing="1">Tab 1 crashing does not affect Tab 2. Each tab has its own subprocess, state machine, and error recovery.</text>
</svg>
